<svg version="1.0" xmlns="http://www.w3.org/2000/svg"
 width="320.000000pt" height="363.000000pt" viewBox="0 0 320.000000 363.000000"
 preserveAspectRatio="xMidYMid meet">

<g transform="translate(0.000000,363.000000) scale(0.100000,-0.100000)"
fill="#000000" stroke="none">
<path d="M2460 3452 c0 -126 -51 -209 -145 -238 -33 -10 -119 -18 -255 -24
-249 -10 -296 -23 -375 -104 -56 -57 -83 -127 -88 -226 l-2 -55 38 -3 c36 -3
37 -2 37 29 0 18 8 60 17 93 24 85 76 137 168 166 65 21 90 23 340 25 349 3
411 17 492 109 44 50 63 102 71 194 l5 62 -32 0 c-30 0 -31 -1 -31 -43 0 -59
-25 -140 -55 -175 -32 -39 -109 -71 -187 -78 l-63 -6 36 30 c52 44 81 119 87
220 l5 82 -32 0 -31 0 0 -58z"/>
<path d="M1240 2550 l0 -229 -541 -3 -541 -3 -24 -28 c-32 -38 -32 -86 2 -126
l26 -31 539 0 539 0 0 -230 0 -230 120 0 120 0 0 -83 c0 -61 5 -92 19 -120
l19 -37 -37 -5 c-78 -13 -97 -18 -124 -32 -56 -28 -61 -97 -10 -130 24 -16 56
-18 303 -18 303 0 320 -3 320 -55 0 -49 -41 -63 -225 -80 -156 -14 -228 -34
-260 -72 -22 -26 -25 -39 -25 -109 l0 -79 164 0 c197 0 249 -13 312 -76 58
-58 77 -121 72 -238 -8 -200 -110 -296 -313 -296 l-85 0 0 235 0 235 -75 0
-75 0 0 -289 c0 -254 2 -290 16 -295 9 -3 80 -6 158 -6 279 0 419 66 497 234
54 117 56 290 5 402 -48 105 -159 181 -298 204 -38 7 -125 10 -194 9 -120 -4
-125 -3 -122 16 4 29 80 51 228 64 69 7 148 18 177 26 119 34 142 157 40 213
-28 15 -64 17 -297 17 -269 0 -320 6 -286 34 8 7 48 17 88 22 40 5 103 21 140
35 93 35 108 61 108 183 l0 91 120 0 120 0 2 228 3 227 533 3 c589 2 570 0
592 66 13 41 2 75 -36 105 -26 21 -31 21 -560 21 l-534 0 0 230 0 230 -360 0
-360 0 0 -230z"/>
<path d="M1121 2706 c-31 -17 -50 -53 -51 -93 0 -41 43 -89 88 -98 l32 -7 0
106 c0 103 -1 106 -22 106 -13 -1 -34 -7 -47 -14z"/>
<path d="M2000 2614 l0 -106 28 7 c66 16 99 62 87 122 -7 38 -56 83 -91 83
-24 0 -24 0 -24 -106z"/>
<path d="M1063 940 c-68 -14 -136 -48 -130 -64 3 -8 11 -32 17 -54 l12 -39 67
23 c76 27 118 30 165 10 70 -29 88 -105 38 -156 -33 -32 -87 -50 -154 -50
l-48 0 0 -55 0 -55 58 0 c77 0 126 -15 160 -50 59 -59 46 -152 -28 -195 -48
-27 -155 -26 -228 3 l-53 20 -11 -26 c-6 -15 -11 -42 -12 -61 -1 -32 1 -34 54
-52 189 -66 401 -5 457 130 46 109 -15 250 -119 276 -37 9 -35 17 8 40 74 40
118 138 94 212 -31 96 -102 143 -228 148 -42 2 -96 0 -119 -5z"/>
</g>
</svg>
